<mxfile host="www.draw.io" modified="2019-11-06T10:15:56.668Z" agent="Mozilla/5.0 (X11; Linux x86_64) AppleWebKit/537.36 (KHTML, like Gecko) Chrome/78.0.3904.70 Safari/537.36" etag="Gbs2BPBfSx1Q3aqInHRb" version="12.2.0" type="github" pages="1">
  <diagram id="lGQ3vb2cUnJrmoqx4bYj" name="Page-1">
    <mxGraphModel dx="1024" dy="592" grid="1" gridSize="10" guides="1" tooltips="1" connect="1" arrows="1" fold="1" page="1" pageScale="1" pageWidth="850" pageHeight="1100" math="0" shadow="0">
      <root>
        <mxCell id="0"/>
        <mxCell id="1" parent="0"/>
        <mxCell id="sX4nHr7L17KbG5DbamT9-1" value="Experience" style="text;html=1;resizable=0;points=[];autosize=1;align=left;verticalAlign=top;spacingTop=-4;" parent="1" vertex="1">
          <mxGeometry x="329" y="22" width="80" height="20" as="geometry"/>
        </mxCell>
        <mxCell id="sX4nHr7L17KbG5DbamT9-7" value="ExperienceService" style="swimlane;fontStyle=1;align=center;verticalAlign=top;childLayout=stackLayout;horizontal=1;startSize=26;horizontalStack=0;resizeParent=1;resizeParentMax=0;resizeLast=0;collapsible=1;marginBottom=0;fillColor=none;" parent="1" vertex="1">
          <mxGeometry x="140" y="175" width="210" height="60" as="geometry"/>
        </mxCell>
        <mxCell id="sX4nHr7L17KbG5DbamT9-9" value="" style="line;strokeWidth=1;fillColor=none;align=left;verticalAlign=middle;spacingTop=-1;spacingLeft=3;spacingRight=3;rotatable=0;labelPosition=right;points=[];portConstraint=eastwest;" parent="sX4nHr7L17KbG5DbamT9-7" vertex="1">
          <mxGeometry y="26" width="210" height="8" as="geometry"/>
        </mxCell>
        <mxCell id="sX4nHr7L17KbG5DbamT9-10" value="+ calculateTodoExp(todo : Todo)" style="text;strokeColor=none;fillColor=none;align=left;verticalAlign=top;spacingLeft=4;spacingRight=4;overflow=hidden;rotatable=0;points=[[0,0.5],[1,0.5]];portConstraint=eastwest;" parent="sX4nHr7L17KbG5DbamT9-7" vertex="1">
          <mxGeometry y="34" width="210" height="26" as="geometry"/>
        </mxCell>
        <mxCell id="sX4nHr7L17KbG5DbamT9-11" value="ExperienceResource" style="swimlane;fontStyle=1;align=center;verticalAlign=top;childLayout=stackLayout;horizontal=1;startSize=26;horizontalStack=0;resizeParent=1;resizeParentMax=0;resizeLast=0;collapsible=1;marginBottom=0;fillColor=none;" parent="1" vertex="1">
          <mxGeometry x="95" y="70" width="300" height="86" as="geometry"/>
        </mxCell>
        <mxCell id="nhcicgpru5rfpdDJxAu8-8" value="- Mapper" style="text;strokeColor=none;fillColor=none;align=left;verticalAlign=top;spacingLeft=4;spacingRight=4;overflow=hidden;rotatable=0;points=[[0,0.5],[1,0.5]];portConstraint=eastwest;" vertex="1" parent="sX4nHr7L17KbG5DbamT9-11">
          <mxGeometry y="26" width="300" height="26" as="geometry"/>
        </mxCell>
        <mxCell id="sX4nHr7L17KbG5DbamT9-13" value="" style="line;strokeWidth=1;fillColor=none;align=left;verticalAlign=middle;spacingTop=-1;spacingLeft=3;spacingRight=3;rotatable=0;labelPosition=right;points=[];portConstraint=eastwest;" parent="sX4nHr7L17KbG5DbamT9-11" vertex="1">
          <mxGeometry y="52" width="300" height="8" as="geometry"/>
        </mxCell>
        <mxCell id="sX4nHr7L17KbG5DbamT9-14" value="+ calculateExperience(todoRequest : TodoRequest)&#xa;" style="text;strokeColor=none;fillColor=none;align=left;verticalAlign=top;spacingLeft=4;spacingRight=4;overflow=hidden;rotatable=0;points=[[0,0.5],[1,0.5]];portConstraint=eastwest;" parent="sX4nHr7L17KbG5DbamT9-11" vertex="1">
          <mxGeometry y="60" width="300" height="26" as="geometry"/>
        </mxCell>
        <mxCell id="sX4nHr7L17KbG5DbamT9-15" value="Mapper" style="swimlane;fontStyle=1;align=center;verticalAlign=top;childLayout=stackLayout;horizontal=1;startSize=26;horizontalStack=0;resizeParent=1;resizeParentMax=0;resizeLast=0;collapsible=1;marginBottom=0;fillColor=none;" parent="1" vertex="1">
          <mxGeometry x="520" y="70" width="240" height="110" as="geometry"/>
        </mxCell>
        <mxCell id="sX4nHr7L17KbG5DbamT9-16" value="" style="line;strokeWidth=1;fillColor=none;align=left;verticalAlign=middle;spacingTop=-1;spacingLeft=3;spacingRight=3;rotatable=0;labelPosition=right;points=[];portConstraint=eastwest;" parent="sX4nHr7L17KbG5DbamT9-15" vertex="1">
          <mxGeometry y="26" width="240" height="8" as="geometry"/>
        </mxCell>
        <mxCell id="sX4nHr7L17KbG5DbamT9-17" value="+ toTodoVO (todo : Todo)&#xa;+ toTodo(todoVO : TodoVO)&#xa;+ toUserData(userDataVO : UserDataVO)&#xa;+ toUserDataVO(userData : UserData)" style="text;strokeColor=none;fillColor=none;align=left;verticalAlign=top;spacingLeft=4;spacingRight=4;overflow=hidden;rotatable=0;points=[[0,0.5],[1,0.5]];portConstraint=eastwest;" parent="sX4nHr7L17KbG5DbamT9-15" vertex="1">
          <mxGeometry y="34" width="240" height="76" as="geometry"/>
        </mxCell>
        <mxCell id="sX4nHr7L17KbG5DbamT9-18" value="UserGateway" style="swimlane;fontStyle=1;align=center;verticalAlign=top;childLayout=stackLayout;horizontal=1;startSize=26;horizontalStack=0;resizeParent=1;resizeParentMax=0;resizeLast=0;collapsible=1;marginBottom=0;fillColor=none;" parent="1" vertex="1">
          <mxGeometry x="130" y="260" width="230" height="104" as="geometry"/>
        </mxCell>
        <mxCell id="nhcicgpru5rfpdDJxAu8-6" value="- userClient : UserClient&#xa;- mapper : Mapper" style="text;strokeColor=none;fillColor=none;align=left;verticalAlign=top;spacingLeft=4;spacingRight=4;overflow=hidden;rotatable=0;points=[[0,0.5],[1,0.5]];portConstraint=eastwest;" vertex="1" parent="sX4nHr7L17KbG5DbamT9-18">
          <mxGeometry y="26" width="230" height="34" as="geometry"/>
        </mxCell>
        <mxCell id="sX4nHr7L17KbG5DbamT9-19" value="" style="line;strokeWidth=1;fillColor=none;align=left;verticalAlign=middle;spacingTop=-1;spacingLeft=3;spacingRight=3;rotatable=0;labelPosition=right;points=[];portConstraint=eastwest;" parent="sX4nHr7L17KbG5DbamT9-18" vertex="1">
          <mxGeometry y="60" width="230" height="18" as="geometry"/>
        </mxCell>
        <mxCell id="sX4nHr7L17KbG5DbamT9-20" value="+ updateData(userDataVO : UserDataVO)" style="text;strokeColor=none;fillColor=none;align=left;verticalAlign=top;spacingLeft=4;spacingRight=4;overflow=hidden;rotatable=0;points=[[0,0.5],[1,0.5]];portConstraint=eastwest;" parent="sX4nHr7L17KbG5DbamT9-18" vertex="1">
          <mxGeometry y="78" width="230" height="26" as="geometry"/>
        </mxCell>
        <mxCell id="sX4nHr7L17KbG5DbamT9-21" value="UserClient" style="swimlane;fontStyle=1;align=center;verticalAlign=top;childLayout=stackLayout;horizontal=1;startSize=26;horizontalStack=0;resizeParent=1;resizeParentMax=0;resizeLast=0;collapsible=1;marginBottom=0;fillColor=none;" parent="1" vertex="1">
          <mxGeometry x="80" y="387" width="300" height="80" as="geometry"/>
        </mxCell>
        <mxCell id="sX4nHr7L17KbG5DbamT9-22" value="" style="line;strokeWidth=1;fillColor=none;align=left;verticalAlign=middle;spacingTop=-1;spacingLeft=3;spacingRight=3;rotatable=0;labelPosition=right;points=[];portConstraint=eastwest;" parent="sX4nHr7L17KbG5DbamT9-21" vertex="1">
          <mxGeometry y="26" width="300" height="8" as="geometry"/>
        </mxCell>
        <mxCell id="sX4nHr7L17KbG5DbamT9-23" value="+ updateUserData&#xa;(updateUserDataRequest : UpdateUserDataRequest)" style="text;strokeColor=none;fillColor=none;align=left;verticalAlign=top;spacingLeft=4;spacingRight=4;overflow=hidden;rotatable=0;points=[[0,0.5],[1,0.5]];portConstraint=eastwest;" parent="sX4nHr7L17KbG5DbamT9-21" vertex="1">
          <mxGeometry y="34" width="300" height="46" as="geometry"/>
        </mxCell>
        <mxCell id="sX4nHr7L17KbG5DbamT9-28" value="Todo" style="swimlane;fontStyle=1;align=center;verticalAlign=top;childLayout=stackLayout;horizontal=1;startSize=26;horizontalStack=0;resizeParent=1;resizeParentMax=0;resizeLast=0;collapsible=1;marginBottom=0;fillColor=none;" parent="1" vertex="1">
          <mxGeometry x="650" y="205" width="160" height="134" as="geometry"/>
        </mxCell>
        <mxCell id="sX4nHr7L17KbG5DbamT9-29" value="- text : String&#xa;- hardness : Enum&#xa;- scaryness : Enum&#xa;- date : LocalDateTime" style="text;strokeColor=none;fillColor=none;align=left;verticalAlign=top;spacingLeft=4;spacingRight=4;overflow=hidden;rotatable=0;points=[[0,0.5],[1,0.5]];portConstraint=eastwest;" parent="sX4nHr7L17KbG5DbamT9-28" vertex="1">
          <mxGeometry y="26" width="160" height="74" as="geometry"/>
        </mxCell>
        <mxCell id="sX4nHr7L17KbG5DbamT9-30" value="" style="line;strokeWidth=1;fillColor=none;align=left;verticalAlign=middle;spacingTop=-1;spacingLeft=3;spacingRight=3;rotatable=0;labelPosition=right;points=[];portConstraint=eastwest;" parent="sX4nHr7L17KbG5DbamT9-28" vertex="1">
          <mxGeometry y="100" width="160" height="8" as="geometry"/>
        </mxCell>
        <mxCell id="sX4nHr7L17KbG5DbamT9-31" value="+ getters/setters" style="text;strokeColor=none;fillColor=none;align=left;verticalAlign=top;spacingLeft=4;spacingRight=4;overflow=hidden;rotatable=0;points=[[0,0.5],[1,0.5]];portConstraint=eastwest;" parent="sX4nHr7L17KbG5DbamT9-28" vertex="1">
          <mxGeometry y="108" width="160" height="26" as="geometry"/>
        </mxCell>
        <mxCell id="sX4nHr7L17KbG5DbamT9-32" value="TodoVO" style="swimlane;fontStyle=1;align=center;verticalAlign=top;childLayout=stackLayout;horizontal=1;startSize=26;horizontalStack=0;resizeParent=1;resizeParentMax=0;resizeLast=0;collapsible=1;marginBottom=0;fillColor=none;" parent="1" vertex="1">
          <mxGeometry x="650" y="364" width="160" height="134" as="geometry"/>
        </mxCell>
        <mxCell id="sX4nHr7L17KbG5DbamT9-33" value="- Text : String&#xa;- Hardness : Enum&#xa;- Scaryness : Enum&#xa;- Date : LocalDateTime" style="text;strokeColor=none;fillColor=none;align=left;verticalAlign=top;spacingLeft=4;spacingRight=4;overflow=hidden;rotatable=0;points=[[0,0.5],[1,0.5]];portConstraint=eastwest;" parent="sX4nHr7L17KbG5DbamT9-32" vertex="1">
          <mxGeometry y="26" width="160" height="74" as="geometry"/>
        </mxCell>
        <mxCell id="sX4nHr7L17KbG5DbamT9-34" value="" style="line;strokeWidth=1;fillColor=none;align=left;verticalAlign=middle;spacingTop=-1;spacingLeft=3;spacingRight=3;rotatable=0;labelPosition=right;points=[];portConstraint=eastwest;" parent="sX4nHr7L17KbG5DbamT9-32" vertex="1">
          <mxGeometry y="100" width="160" height="8" as="geometry"/>
        </mxCell>
        <mxCell id="sX4nHr7L17KbG5DbamT9-35" value="+ getters/setters" style="text;strokeColor=none;fillColor=none;align=left;verticalAlign=top;spacingLeft=4;spacingRight=4;overflow=hidden;rotatable=0;points=[[0,0.5],[1,0.5]];portConstraint=eastwest;" parent="sX4nHr7L17KbG5DbamT9-32" vertex="1">
          <mxGeometry y="108" width="160" height="26" as="geometry"/>
        </mxCell>
        <mxCell id="sX4nHr7L17KbG5DbamT9-36" value="UserData" style="swimlane;fontStyle=1;align=center;verticalAlign=top;childLayout=stackLayout;horizontal=1;startSize=26;horizontalStack=0;resizeParent=1;resizeParentMax=0;resizeLast=0;collapsible=1;marginBottom=0;fillColor=none;" parent="1" vertex="1">
          <mxGeometry x="470" y="203" width="160" height="114" as="geometry"/>
        </mxCell>
        <mxCell id="sX4nHr7L17KbG5DbamT9-37" value="- loginId : Long&#xa;- loginName : String&#xa;- experience : Long" style="text;strokeColor=none;fillColor=none;align=left;verticalAlign=top;spacingLeft=4;spacingRight=4;overflow=hidden;rotatable=0;points=[[0,0.5],[1,0.5]];portConstraint=eastwest;" parent="sX4nHr7L17KbG5DbamT9-36" vertex="1">
          <mxGeometry y="26" width="160" height="54" as="geometry"/>
        </mxCell>
        <mxCell id="sX4nHr7L17KbG5DbamT9-38" value="" style="line;strokeWidth=1;fillColor=none;align=left;verticalAlign=middle;spacingTop=-1;spacingLeft=3;spacingRight=3;rotatable=0;labelPosition=right;points=[];portConstraint=eastwest;" parent="sX4nHr7L17KbG5DbamT9-36" vertex="1">
          <mxGeometry y="80" width="160" height="8" as="geometry"/>
        </mxCell>
        <mxCell id="sX4nHr7L17KbG5DbamT9-39" value="+ getters/setters" style="text;strokeColor=none;fillColor=none;align=left;verticalAlign=top;spacingLeft=4;spacingRight=4;overflow=hidden;rotatable=0;points=[[0,0.5],[1,0.5]];portConstraint=eastwest;" parent="sX4nHr7L17KbG5DbamT9-36" vertex="1">
          <mxGeometry y="88" width="160" height="26" as="geometry"/>
        </mxCell>
        <mxCell id="nhcicgpru5rfpdDJxAu8-1" value="UserDataVO" style="swimlane;fontStyle=1;align=center;verticalAlign=top;childLayout=stackLayout;horizontal=1;startSize=26;horizontalStack=0;resizeParent=1;resizeParentMax=0;resizeLast=0;collapsible=1;marginBottom=0;fillColor=none;" vertex="1" parent="1">
          <mxGeometry x="470" y="343" width="160" height="114" as="geometry"/>
        </mxCell>
        <mxCell id="nhcicgpru5rfpdDJxAu8-7" value="- loginId : Long&#xa;- loginName : String&#xa;- experience : Long" style="text;strokeColor=none;fillColor=none;align=left;verticalAlign=top;spacingLeft=4;spacingRight=4;overflow=hidden;rotatable=0;points=[[0,0.5],[1,0.5]];portConstraint=eastwest;" vertex="1" parent="nhcicgpru5rfpdDJxAu8-1">
          <mxGeometry y="26" width="160" height="54" as="geometry"/>
        </mxCell>
        <mxCell id="nhcicgpru5rfpdDJxAu8-3" value="" style="line;strokeWidth=1;fillColor=none;align=left;verticalAlign=middle;spacingTop=-1;spacingLeft=3;spacingRight=3;rotatable=0;labelPosition=right;points=[];portConstraint=eastwest;" vertex="1" parent="nhcicgpru5rfpdDJxAu8-1">
          <mxGeometry y="80" width="160" height="8" as="geometry"/>
        </mxCell>
        <mxCell id="nhcicgpru5rfpdDJxAu8-4" value="+ getters/setters" style="text;strokeColor=none;fillColor=none;align=left;verticalAlign=top;spacingLeft=4;spacingRight=4;overflow=hidden;rotatable=0;points=[[0,0.5],[1,0.5]];portConstraint=eastwest;" vertex="1" parent="nhcicgpru5rfpdDJxAu8-1">
          <mxGeometry y="88" width="160" height="26" as="geometry"/>
        </mxCell>
      </root>
    </mxGraphModel>
  </diagram>
</mxfile>
